<svg id="visual" viewBox="0 0 1200 800" width="1200" height="800" xmlns="http://www.w3.org/2000/svg" xmlns:xlink="http://www.w3.org/1999/xlink" version="1.1"><g><g transform="translate(929 293)"><path d="M0 -64.8L56.1 -32.4L56.1 32.4L0 64.8L-56.1 32.4L-56.1 -32.4Z" stroke="#0066FF" fill="none" stroke-width="1"></path></g><g transform="translate(78 389)"><path d="M0 -60L52 -30L52 30L0 60L-52 30L-52 -30Z" stroke="#0066FF" fill="none" stroke-width="1"></path></g><g transform="translate(266 349)"><path d="M0 -55L47.6 -27.5L47.6 27.5L0 55L-47.6 27.5L-47.6 -27.5Z" stroke="#0066FF" fill="none" stroke-width="1"></path></g><g transform="translate(144 613)"><path d="M0 -51L44.2 -25.5L44.2 25.5L0 51L-44.2 25.5L-44.2 -25.5Z" stroke="#0066FF" fill="none" stroke-width="1"></path></g><g transform="translate(825 401)"><path d="M0 -62L53.7 -31L53.7 31L0 62L-53.7 31L-53.7 -31Z" stroke="#0066FF" fill="none" stroke-width="1"></path></g></g></svg>